<svg xmlns="http://www.w3.org/2000/svg" clip-rule="evenodd" fill-rule="evenodd" stroke-linejoin="round" stroke-miterlimit="1.41421" viewBox="0 0 560 400"><path d="m389.8 487.4-7.5-19.4 72.7 3.7-3.3 31zm17.4-150.2-101.8 48.1 15.7 72.4h20.8l-3.6-51.8 3.2-1 12.5 52.8h21.6l-.8-63.1 3.2-1 10.9 64.1h22.8l5.4-76.3 3.2-1 5.7 77.2h30.2l10.6-106zm314.3 157.7-.2-6 20.9-.2.2-6.6-21.3-.3-.2-6.1 28.1-.7.2-7.2h-37.9l-1.1 35.1h39.7l-.3-7.2zm-189.1-12.9-.4 6.6 10.5.4-.1 6.7-22.1-.6 1-19.2 30.3-.7-.4-7.2h-39.2l-3.5 35.1h44.7l-1.2-21.2zm276.7 2.7-29-4.9.1-3.8 27.7-1-.7-7.2h-35.6l-1.8 18.2 29.5 5.1.1 3.3-30.6 1.2-.8 7.2h42.9zm-118.2 18.1-3.5-35.1h-10.1l-14.5 16.7-14.5-16.7h-10.1l-3.5 35.1h11.9l1.1-22.8 15.1 15.5 15.1-15.5 1.1 22.8zm-49.8-163.5h-23.7l-2.2 108.5h28.7zm73.5 84.9-26.2.8-.9-63.8 27.4.8zm22.9-84.8h-74l-2.9 108.4h82.1zm88.5 23.7-2.6-23.7h-72.9l.6 21.1 23.3.8 2.4 86.5h28.7l-8.6-85.7zm-281.8-1.6 22.9-.8 2.6 21.6-26.4 12.5zm26.7 86.3h31.1l-20.3-48.7 16.2-8.8-11.1-50.9h-79.5l-2.6 23.5 17.8-.6-8.6 85.5h27.8l.8-27.3 20.1-11zm15.2 39.2 2.4-11.5 11.6-.5 2.4 11.5zm19.8 15.8h12l-9.5-35.1h-28.2l-9.5 35.1h12l1.9-8.8 19.5.3z" fill="#d22a36" fill-rule="nonzero" transform="matrix(.69151 0 0 .69151 -111.187 -90.5378)"/></svg>