<svg class="icon" xmlns="http://www.w3.org/2000/svg" width="48" height="48" viewBox="0 0 400 400"><path fill-rule="evenodd" fill="#c79e57" d="M294.118, 35.294c-25.034,38.865-60.555,80.6-81.959,134.935,8.81,21.507, 17.469,42.872,23.135,65.065,5.088-12.873,5.51-23.4, 11.765-35.294C247, 141.447,268.9,97.375,294.118,35.294m-141.177, 200c-17.5-52.79-56-81.948-105.882-105.882,45.506,36.9,52.025, 88.47,58.823,141.176l44.035,38.96c17.313,18.887, 44.514,48.694,50.083,55.158, 53.589-111.119-39.6-244.759-94.118-329.412C137.292, 112.618,161.376,156.962, 152.941,235.294Zm94.118,58.824c1.1,9.873-.075,13.739,0, 23.529l47.059-47.059c6.8-52.706,13.318-104.28, 58.823-141.176C290.728,159.259,260.4,221.817, 247.059,294.118Z"></path></svg>